<?xml version="1.0" encoding="UTF-8"?>
<svg width="17px" height="15px" viewBox="0 0 17 15" version="1.1" xmlns="http://www.w3.org/2000/svg" xmlns:xlink="http://www.w3.org/1999/xlink">
    <!-- Generator: Sketch 53.2 (72643) - https://sketchapp.com -->
    <title>Group 5</title>
    <desc>Created with Sketch.</desc>
    <g id="页面1" stroke="none" stroke-width="1" fill="none" fill-rule="evenodd">
        <g id="修改默认密码" transform="translate(-151.000000, -565.000000)" fill="#D43645">
            <g id="Group-11-Copy" transform="translate(35.000000, 554.000000)">
                <g id="Group-5" transform="translate(116.000000, 11.000000)">
                    <path d="M9.4053389,1.27044481 L16.1849602,13.1737965 C16.4582923,13.6537007 16.2908326,14.2643193 15.8109285,14.5376514 C15.6601252,14.6235423 15.4895648,14.6687081 15.3160169,14.6687081 L1.75677426,14.6687081 C1.20448951,14.6687081 0.756774256,14.2209928 0.756774256,13.6687081 C0.756774256,13.4951602 0.801940042,13.3245998 0.887830924,13.1737965 L7.66745223,1.27044481 C7.94078436,0.790540664 8.55140301,0.623080949 9.03130716,0.896413074 C9.18729678,0.985257846 9.31649413,1.11445519 9.4053389,1.27044481 Z M9.50441248,7.78081996 C9.50441248,7.56164243 9.42399185,7.37671139 9.26315058,7.22602683 C9.10230931,7.07534228 8.90255484,7 8.66388715,7 C8.42521947,7 8.22287078,7.07534228 8.05684108,7.22602683 C7.89081139,7.37671139 7.80779654,7.56164243 7.80779654,7.78081996 L7.80779654,12.3698496 C7.80779654,12.5890271 7.89081139,12.7648257 8.05684108,12.8972455 C8.22287078,13.0296653 8.42521947,13.0958751 8.66388715,13.0958751 C8.90255484,13.0958751 9.10490353,13.0273822 9.27093322,12.8903962 C9.43696292,12.7534102 9.51997776,12.5753285 9.51997776,12.356151 L9.50441248,7.78081996 Z M9.4756167,5.86510591 C9.68834225,5.6518023 9.79470502,5.39427722 9.79470502,5.09253066 C9.79470502,4.7907841 9.68834225,4.53325901 9.4756167,4.31995541 C9.26289116,4.1066518 9.00606398,4 8.70513515,4 C8.40420633,4 8.14478494,4.1066518 7.92687096,4.31995541 C7.70895699,4.53325901 7.6,4.7907841 7.6,5.09253066 C7.6,5.39427722 7.70895699,5.6518023 7.92687096,5.86510591 C8.14478494,6.07840951 8.40420633,6.18506132 8.70513515,6.18506132 C9.00606398,6.18506132 9.26289116,6.07840951 9.4756167,5.86510591 Z" id="Combined-Shape"></path>
                </g>
            </g>
        </g>
    </g>
</svg>